# AST/ASF file generated using VICON BodyLanguage
# -----------------------------------------------
:version 1.10
:name VICON
:units
  mass 1.0
  length 0.45
  angle deg
:documentation
   .ast/.asf automatically generated from VICON data using
   VICON BodyBuilder and BodyLanguage model FoxedUp or BRILLIANT.MOD
:root
   order TX TY TZ RX RY RZ
   axis XYZ
   position 0 0 0  
   orientation 0 0 0 
:bonedata
  begin
     id 1 
     name lhipjoint
     direction 0.603808 -0.713975 0.35448 
     length 2.2025 
     axis 0 0 0  XYZ
  end
  begin
     id 2 
     name lfemur
     direction 0.34202 -0.939693 0  
     length 6.55877  
     axis 0 0 20  XYZ
    dof rx ry rz
    limits (-160.0 20.0)
           (-70.0 70.0)
           (-60.0 70.0)
  end
  begin
     id 3 
     name ltibia
     direction 0.34202 -0.939693 0   
     length 6.80302   
     axis 0 0 20   XYZ
    dof rx
    limits (-10.0 170.0)
  end
  begin
     id 4 
     name lfoot
     direction 0.091848 -0.25235 0.963267   
     length 2.03446   
     axis -90 7.62852e-016 20   XYZ
    dof rx rz
    limits (-45.0 90.0)
           (-70.0 20.0)
  end
  begin
     id 5 
     name ltoes
     direction 1.53608e-011 -4.21925e-011 1   
     length 1.02033   
     axis -90 7.62852e-016 20   XYZ
    dof rx
    limits (-90.0 20.0)
  end
  begin
     id 6 
     name rhipjoint
     direction -0.587285 -0.724947 0.359928   
     length 2.16916  
     axis 0 0 0  XYZ 
  end
  begin
     id 7 
     name rfemur
     direction -0.34202 -0.939693 0   
     length 6.43173   
     axis 0 0 -20   XYZ
    dof rx ry rz
    limits (-160.0 20.0)
           (-70.0 70.0)
           (-70.0 60.0)
  end
  begin
     id 8 
     name rtibia
     direction -0.34202 -0.939693 0   
     length 6.70662   
     axis 0 0 -20   XYZ
    dof rx
    limits (-10.0 170.0)
 end
 begin
     id 9 
     name rfoot
     direction -0.11854 -0.325686 0.938018   
     length 2.0773  
     axis -90 -7.62852e-016 -20   XYZ
    dof rx rz
    limits (-45.0 90.0)
           (-20.0 70.0)
  end
  begin
     id 10 
     name rtoes
     direction -1.53547e-011 -4.21838e-011 1   
     length 1.03267   
     axis -90 -7.62852e-016 -20   XYZ
    dof rx
    limits (-90.0 20.0)
  end
  begin
     id 11 
     name lowerback
     direction -0.0286554 0.999539 0.0100613   
     length 2.08751   
     axis 0 0 0   XYZ
    dof rx ry rz
    limits (-20.0 45.0)
           (-30.0 30.0)
           (-30.0 30.0)
  end
  begin
     id 12 
     name upperback
     direction 0.0227093 0.999705 -0.00860929   
     length 2.08517   
     axis 0 0 0   XYZ
    dof rx ry rz
    limits (-20.0 45.0)
           (-30.0 30.0)
           (-30.0 30.0)
  end
  begin
     id 13 
     name thorax
     direction 0.0351627 0.999285 -0.013892   
     length 2.08412   
     axis 0 0 0   XYZ
    dof rx ry rz
    limits (-20.0 45.0)
           (-30.0 30.0)
           (-30.0 30.0)
  end
  begin
     id 14 
     name lowerneck
     direction -0.0696283 0.997344 0.0213922   
     length 1.44164   
     axis 0 0 0   XYZ
    dof rx ry rz
    limits (-20.0 45.0)
           (-30.0 30.0)
           (-30.0 30.0)
  end
  begin
     id 15 
     name upperneck
     direction 0.0531 0.990412 -0.127531   
     length 1.45022   
     axis 0 0 0   XYZ
    dof rx ry rz
    limits (-20.0 45.0)
           (-30.0 30.0)
           (-30.0 30.0)
  end
  begin
     id 16
     name head
     direction 0.0188154 0.998548 -0.0504727  
     length 1.45845  
     axis 0 0 0   XYZ
    dof rx ry rz
    limits (-20.0 45.0)
           (-30.0 30.0)
           (-30.0 30.0)
  end
  begin
     id 17 
     name lclavicle
     direction 0.961559 0.260051 0.088188  
     length 2.86057  
     axis 0 0 0   XYZ
    dof ry rz
    limits (-20.0 10.0)
           (0.0 20.0)
  end
  begin
     id 18 
     name lhumerus
     direction 1 -4.48959e-011 2.88185e-027   
     length 4.36901   
     axis 180 -30 -90   XYZ
    dof rx ry rz
    limits (-60.0 90.0)
           (-90.0 90.0)
           (-90.0 90.0)
  end
  begin
     id 19
     name lradius
     direction 1 -4.48965e-011 -3.92618e-028   
     length 3.21737   
     axis 180 -30 -90   XYZ
    dof rx
    limits (-10.0 170.0)
  end
  begin
     id 20
     name lwrist
     direction 1 -4.49037e-011 2.57246e-027   
     length 1.60869   
     axis -1.61769e-015 90 90   XYZ
    dof ry
    limits (-180.0 0.0)
 end
  begin
     id 21 
     name lhand
     direction 1 -4.48807e-011 5.12958e-027   
     length 0.564313   
     axis -3.27988e-015 90 90   XYZ
    dof rx rz
    limits (-90.0 90.0)
           (-45.0 45.0)
  end
  begin
     id 22 
     name lfingers
     direction 1 -4.48879e-011 1.02687e-026   
     length 0.454963   
     axis -6.5598e-015 90 90   XYZ
    dof rx
    limits (0.0 90.0)
  end
  begin
     id 23
     name lthumb
     direction 0.707107 -6.3475e-011 0.707107   
     length 0.653239   
     axis -90 45 2.19363e-014   XYZ
    dof rx rz
    limits (-45.0 45.0)
           (-45.0 45.0)
  end
  begin
     id 24 
     name rclavicle
     direction -0.954677 0.253915 0.155304   
     length 3.11497  
     axis 0 0 0   XYZ 
    dof ry rz
    limits (-10.0 20.0)
           (-20.0 0.0)
  end
  begin
     id 25 
     name rhumerus
     direction -1 -4.48958e-011 -8.20169e-028  
     length 4.34118   
     axis 180 30 90   XYZ
    dof rx ry rz
    limits (-90.0 60.0)
           (-90.0 90.0)
           (-90.0 90.0)
  end
  begin
     id 26 
     name rradius
     direction -1 -4.48978e-011 1.5676e-027   
     length 3.09531   
     axis 180 30 90   XYZ
    dof rx
    limits (-10.0 170.0)
  end
  begin
     id 27 
     name rwrist
     direction -1 -4.49001e-011 2.57123e-027   
     length 1.54765   
     axis -1.61769e-015 -90 -90   XYZ
    dof ry
    limits (-180.0 0.0)
  end
  begin
     id 28
     name rhand
     direction -1 -4.48847e-011 5.13225e-027   
     length 0.597446   
     axis -3.27988e-015 -90 -90   XYZ
    dof rx rz
    limits (-90.0 90.0)
           (-45.0 45.0)
  end
  begin
     id 29
     name rfingers
     direction -1 -4.49094e-011 1.02974e-026   
     length 0.481677   
     axis -6.5598e-015 -90 -90   XYZ
    dof rx
    limits (0.0 90.0)
  end
  begin
     id 30
     name rthumb
     direction -0.707107 -6.34859e-011 0.707107   
     length 0.691594   
     axis -90 -45 -2.19363e-014   XYZ
    dof rx rz
    limits (-45.0 45.0)
           (-45.0 45.0)
  end
:hierarchy
  begin
    root lhipjoint rhipjoint lowerback
    lhipjoint lfemur
    lfemur ltibia
    ltibia lfoot
    lfoot ltoes
    rhipjoint rfemur
    rfemur rtibia
    rtibia rfoot
    rfoot rtoes
    lowerback upperback
    upperback thorax
    thorax lowerneck lclavicle rclavicle
    lowerneck upperneck
    upperneck head
    lclavicle lhumerus
    lhumerus lradius
    lradius lwrist
    lwrist lhand lthumb
    lhand lfingers
    rclavicle rhumerus
    rhumerus rradius
    rradius rwrist
    rwrist rhand rthumb
    rhand rfingers
  end

#!OML:ASF I:\Acrobat_Osman\acrobat\cartwheel_test 2\Patient 1\Session 1\acrobat.ASF
:FULLY-SPECIFIED
:DEGREES
1
root 9.14369 15.4958 42.8655 -150.48 -40.7056 166.046
lowerback 5.90315 -0.129916 -0.870553
upperback 0.829766 -0.429859 8.14365
thorax -2.39211 -0.34985 9.13893
lowerneck -3.035 -3.82432 -5.42041
upperneck 3.6582 -5.11439 5.51756
head 2.01031 -2.51716 2.58197
rclavicle 1.90833e-014 -1.24042e-013
rhumerus -9.90049 -2.75835 -8.3446
rradius 32.7876
rwrist 5.64277
rhand -32.3098 34.4364
rfingers 7.12502
rthumb -5.5479 4.52902
lclavicle 1.90833e-014 -1.24042e-013
lhumerus 37.0488 26.2513 -7.25089
lradius 84.4304
lwrist 5.91751
lhand -33.0098 28.0457
lfingers 7.12502
lthumb -6.22366 57.9343
rfemur -46.3063 -6.93919 9.81518
rtibia 44.7014
rfoot -20.9185 -19.9601
rtoes 7.99068
lfemur -12.21 1.43743 -27.3477
ltibia 26.6109
lfoot -24.3135 27.9259
ltoes -1.90638
2
root 9.14799 15.5036 42.7422 -148.993 -40.26 165.223
lowerback 6.14985 1.34974 1.75674
upperback 0.247978 1.88447 5.32795
thorax -3.31982 0.8591 4.37985
lowerneck -1.18379 -7.25103 -0.466872
upperneck 2.40767 -9.96099 7.22144
head 1.38113 -4.90878 2.17352
rclavicle -9.22361e-014 -5.725e-014
rhumerus -17.1255 -5.04493 -9.65312
rradius 33.1118
rwrist 5.04363
rhand -31.5857 30.9979
rfingers 7.12502
rthumb -4.8487 1.07338
lclavicle -9.22361e-014 -5.725e-014
lhumerus 45.5377 26.2004 -4.83718
lradius 83.8686
lwrist 5.28893
lhand -33.1735 27.7157
lfingers 7.12502
lthumb -6.38171 57.5995
rfemur -47.3003 -7.34691 9.59665
rtibia 45.0196
rfoot -21.2075 -19.684
rtoes 7.46622
lfemur -13.1935 2.84572 -27.8056
ltibia 26.6112
lfoot -20.9478 27.692
ltoes -8.5987
3
root 9.16732 15.5107 42.5725 -148.699 -39.949 164.68
lowerback 6.66701 0.413233 0.142404
upperback 0.985362 0.414214 7.33896
thorax -2.7802 0.0857948 7.59572
lowerneck -1.18547 -7.76309 -4.75108
upperneck 2.07359 -10.5553 8.46194
head 1.64881 -5.21826 3.31975
rclavicle 6.36111e-014 1.30403e-013
rhumerus -11.1758 -4.90546 -8.9958
rradius 32.82
rwrist 3.42327
rhand -26.9244 27.2056
rfingers 7.12502
rthumb -0.347082 -2.77382
lclavicle 6.36111e-014 1.30403e-013
lhumerus 40.6055 26.2513 -6.42515
lradius 83.1846
lwrist 5.41677
lhand -33.4107 27.2267
lfingers 7.12502
lthumb -6.61073 57.1035
rfemur -46.762 -6.91965 9.46883
rtibia 45.059
rfoot -21.8588 -20.0737
rtoes 7.21084
lfemur -13.1269 5.15422 -27.6975
ltibia 27.0811
lfoot -17.5491 26.5544
ltoes -16.2697
4
root 9.17107 15.5307 42.443 -147.327 -39.5736 163.869
lowerback 6.77985 -0.0297262 0.209521
upperback 1.14673 -0.221352 7.87783
thorax -2.58987 -0.26049 8.20444
lowerneck -0.767158 -8.7233 -6.66527
upperneck 1.54452 -11.8469 9.92951
head 1.74662 -5.87325 4.14547
rclavicle 4.45278e-014 1.90833e-014
rhumerus -8.1565 -5.1153 -8.84239
rradius 32.4969
rwrist 2.13785
rhand -23.3897 25.4624
rfingers 7.12502
rthumb 3.0668 -4.49525
lclavicle 4.45278e-014 1.90833e-014
lhumerus 38.9526 26.2365 -7.46808
lradius 82.3559
lwrist 5.53436
lhand -33.9588 27.2229
lfingers 7.12502
lthumb -7.13977 57.0825
rfemur -47.4236 -7.48824 9.38545
rtibia 45.0564
rfoot -21.8696 -19.9899
rtoes 5.67687
lfemur -14.1168 5.83431 -28.0487
ltibia 27.5062
lfoot -15.8407 25.9165
ltoes -19.5216
5
root 9.1787 15.5738 42.2757 -146.179 -39.0587 162.901
lowerback 6.93727 -0.020761 0.268354
upperback 2.26845 -0.345374 8.13447
thorax -1.48814 -0.395888 8.44581
lowerneck -3.56054 -10.1883 -6.39166
upperneck 1.27371 -13.6804 10.9135
head 2.1586 -6.66877 3.75281
rclavicle 1.20861e-013 2.35361e-013
rhumerus -5.86589 -7.38125 -8.59191
rradius 31.9782
rwrist 0.726153
rhand -20.2408 24.885
rfingers 7.12502
rthumb 6.10731 -5.00698
lclavicle 1.20861e-013 2.35361e-013
lhumerus 38.5361 27.8828 -7.77382
lradius 81.3826
lwrist 5.35153
lhand -34.3466 27.5639
lfingers 7.12502
lthumb -7.51412 57.4104
rfemur -47.5571 -7.62746 9.01454
rtibia 45.1464
rfoot -22.3225 -20.0881
rtoes 4.20408
lfemur -14.6397 6.40176 -28.375
ltibia 27.8107
lfoot -14.3373 25.1098
ltoes -21.4367
6
root 9.18483 15.5828 42.1257 -144.681 -38.4266 162.153
lowerback 6.80161 -0.0671283 0.654369
upperback 2.37423 -0.416641 8.22775
thorax -1.2927 -0.445403 8.32271
lowerneck -3.28999 -11.1716 -6.40254
upperneck 0.666613 -14.9779 11.4585
head 2.09065 -7.31739 3.85925
rclavicle 9.54166e-015 -5.725e-014
rhumerus -4.57029 -8.37131 -8.74875
rradius 31.8891
rwrist -0.545567
rhand -18.1802 24.3421
rfingers 7.12502
rthumb 8.09646 -5.48279
lclavicle 9.54166e-015 -5.725e-014
lhumerus 38.2691 27.8973 -8.46155
lradius 80.5164
lwrist 5.51459
lhand -34.2081 27.7765
lfingers 7.12502
lthumb -7.38041 57.6278
rfemur -48.5798 -7.97152 8.86495
rtibia 45.4619
rfoot -22.4835 -19.9048
rtoes 3.29745
lfemur -15.1711 5.18848 -28.5006
ltibia 27.9547
lfoot -16.9526 23.6442
ltoes -10.2484
7
root 9.19384 15.5408 41.982 -142.884 -37.6952 161.453
lowerback 6.55713 -0.0888201 1.18698
upperback 2.24839 -0.420406 8.25042
thorax -1.28926 -0.445701 8.03218
lowerneck -3.03053 -11.96 -6.13353
upperneck 0.178776 -16.0157 11.7009
head 1.99483 -7.84001 3.85213
rclavicle -2.54444e-014 5.40694e-014
rhumerus -3.29113 -9.79343 -9.30324
rradius 31.6975
rwrist -1.294
rhand -17.761 23.5838
rfingers 7.12502
rthumb 8.50096 -6.22509
lclavicle -2.54444e-014 5.40694e-014
lhumerus 38.4784 27.7101 -8.88211
lradius 79.3813
lwrist 5.55958
lhand -32.8729 27.3199
lfingers 7.12502
lthumb -6.09151 57.2124
rfemur -50.3615 -8.60099 8.89103
rtibia 46.1195
rfoot -22.1579 -19.475
rtoes 2.04517
lfemur -16.5792 6.37327 -29.2304
ltibia 27.9431
lfoot -12.7319 23.752
ltoes -18.5585
8
root 9.21079 15.514 41.7936 -142.199 -37.1906 160.363
lowerback 7.64992 -0.192735 1.39758
upperback 2.4476 -0.522052 8.31136
thorax -1.67778 -0.505584 8.00868
lowerneck -2.99355 -12.5598 -5.84715
upperneck -0.194722 -16.7903 11.7835
head 1.92928 -8.22611 3.79871
rclavicle -1.59028e-014 -4.45278e-014
rhumerus -1.89159 -11.3371 -9.95219
rradius 31.4997
rwrist -1.90392
rhand -17.9409 23.011
rfingers 7.12502
rthumb 8.32742 -6.80485
lclavicle -1.59028e-014 -4.45278e-014
lhumerus 38.8925 27.4907 -9.22342
lradius 78.0722
lwrist 5.67615
lhand -30.3778 26.3077
lfingers 7.12502
lthumb -3.6823 56.2556
rfemur -50.3877 -9.13904 8.60219
rtibia 47.0621
rfoot -22.4431 -19.0542
rtoes 0.967514
lfemur -16.1398 7.75178 -29.6686
ltibia 27.7152
lfoot -9.64191 22.7519
ltoes -23.5447
9
root 9.22707 15.4848 41.6241 -140.785 -36.1314 159.78
lowerback 7.85889 -0.0577016 1.66384
upperback 2.44608 -0.325827 8.41412
thorax -1.82061 -0.413116 7.95393
lowerneck -2.51408 -12.9577 -5.83309
upperneck -0.985664 -17.2688 11.7952
head 1.83196 -8.50605 4.25745
rclavicle 1.04958e-013 -4.13472e-014
rhumerus -0.369623 -12.9515 -10.5617
rradius 31.4549
rwrist -2.46156
rhand -17.5471 22.3863
rfingers 7.12502
rthumb 8.70745 -7.41409
lclavicle 1.04958e-013 -4.13472e-014
lhumerus 39.167 27.2765 -9.74126
lradius 76.5516
lwrist 5.64761
lhand -27.664 26.2564
lfingers 7.12502
lthumb -1.06136 56.2335
rfemur -52.0275 -10.0053 8.8365
rtibia 48.1549
rfoot -22.6835 -18.023
rtoes -0.242397
lfemur -16.9053 8.17232 -30.2544
ltibia 27.5206
lfoot -8.00714 22.5358
ltoes -24.1375
10
root 9.24285 15.4461 41.4459 -139.591 -35.4002 158.981
lowerback 8.50762 -0.0955097 2.0428
upperback 2.40005 -0.322849 8.57865
thorax -2.22936 -0.41787 7.93257
lowerneck -3.19829 -13.1581 -5.42646
upperneck -0.716332 -17.5218 11.2464
head 1.96118 -8.60224 3.92907
rclavicle 4.13472e-014 3.81667e-014
rhumerus 1.34974 -14.5017 -11.3131
rradius 31.4245
rwrist -2.73331
rhand -16.858 21.3602
rfingers 7.12502
rthumb 9.3724 -8.41144
lclavicle 4.13472e-014 3.81667e-014
lhumerus 39.4618 26.8317 -10.3582
lradius 74.7114
lwrist 4.85454
lhand -24.6278 27.8898
lfingers 7.12502
lthumb 1.87106 57.8614
rfemur -53.1971 -11.1216 9.0728
rtibia 49.3409
rfoot -23.4269 -16.9811
rtoes -0.898901
lfemur -17.3323 8.15725 -30.6404
ltibia 27.5893
lfoot -6.98404 22.2691
ltoes -23.2453
11
root 9.26206 15.4061 41.2546 -138.728 -34.5577 158.3
lowerback 9.44032 -0.0966532 2.31889
upperback 2.44536 -0.273855 8.81713
thorax -2.70448 -0.407096 8.05719
lowerneck -2.40236 -13.2233 -5.37425
upperneck -1.84815 -17.5213 11.4603
head 1.46397 -8.65022 4.08978
rclavicle 3.18055e-014 2.22639e-014
rhumerus 3.22663 -15.8819 -12.1744
rradius 31.3648
rwrist -2.99683
rhand -17.2285 20.7685
rfingers 7.12502
rthumb 9.01482 -9.01891
lclavicle 3.18055e-014 2.22639e-014
lhumerus 39.7861 26.3773 -11.0763
lradius 72.5989
lwrist 3.42439
lhand -21.6533 30.4756
lfingers 7.12502
lthumb 4.74358 60.4025
rfemur -54.2228 -12.0977 9.31437
rtibia 50.679
rfoot -24.1854 -15.7579
rtoes -1.24087
lfemur -17.4901 8.24901 -30.8661
ltibia 27.8585
lfoot -7.00605 21.7427
ltoes -20.5151
